<?xml version="1.0" encoding="UTF-8"?>
<svg xmlns="http://www.w3.org/2000/svg" viewBox="0 0 440 440">
  <defs>
    <style>
      .cls-1 {
        fill: #ffffff;
      }
    </style>
  </defs>
  <g>
    <path class="cls-1" d="M126.48,287.82l-25.09-10.6c-.91-.38-1.96.02-2.38.91-3.3,6.97-10.44,22.02-13.77,29.17-.49,1.04-.01,2.29,1.04,2.74l24.61,9.76c1.01.44,2.18,0,2.66-1.01,4.48-9.48,9.34-18.9,13.9-28.57.44-.93,0-2.04-.96-2.41Z"/>
    <path class="cls-1" d="M141.86,339.88l-32.09-12.13c-1.21-.45-1.77-.1-2.34,1.06-5.2,10.64-10.46,21.24-15.71,31.86,0,0,0,0,0,0-.39.78-.08,1.75.72,2.08.02,0,.04.02.06.02,10.02,3.84,19.46,8.24,29.49,12.07,3.16,1.21,3.46.53,4.94-2.5,5.07-10.37,10.71-20.16,15.82-30.51.6-1.21.37-1.53-.88-1.96Z"/>
    <path class="cls-1" d="M94.06,273.55c3.16,1.21,3.46.53,4.94-2.5,5.07-10.37,8.93-20.16,14.04-30.51.6-1.21.37-1.53-.88-1.96l-27.36-10.35c-1.21-.45-1.77-.1-2.34,1.06-5.2,10.64-8.69,21.24-13.94,31.86,0,0,0,0,0,0-.39.78-.08,1.75.72,2.08.02,0,.04.02.06.02"/>
    <path class="cls-1" d="M25.14,340.41c2.05.78,2.24-.42,3.2-2.38,3.28-6.71,5.4-10.75,8.7-17.45.39-.78.24-.99-.57-1.27l-17.7-7.08c-.78-.29-1.15-.07-1.52.69-3.36,6.89-5.62,11.83-9.02,18.7,0,0,0,0,0,0-.25.5-.05,1.13.47,1.35.01,0,.03.01.04.02"/>
    <path class="cls-1" d="M62.97,312.32c2.61,1,2.85-.05,4.08-2.55,4.19-8.56,7.38-15.18,11.59-23.72.49-1,.3-1.26-.73-1.62l-21.61-9.04c-1-.37-1.47-.09-1.93.87-4.29,8.79-7.66,17.05-12,25.82,0,0,0,0,0,0-.32.64-.07,1.44.6,1.72.02,0,.03.01.05.02"/>
    <path class="cls-1" d="M64.15,357.06c2.61,1,2.85-.05,4.08-2.55,4.19-8.56,7.38-15.18,11.59-23.72.49-1,.3-1.26-.73-1.62l-21.61-9.04c-1-.37-1.47-.09-1.93.87-4.29,8.79-7.66,17.05-12,25.82,0,0,0,0,0,0-.32.64-.07,1.44.6,1.72.02,0,.03.01.05.02"/>
    <ellipse class="cls-1" cx="214.62" cy="187.75" rx="16.59" ry="13.67" transform="translate(-15.29 356.43) rotate(-77.45)"/>
    <ellipse class="cls-1" cx="310.73" cy="222.13" rx="16.59" ry="13.67" transform="translate(26.37 477.15) rotate(-77.45)"/>
    <path class="cls-1" d="M415.74,159.44h0s0,0,0,0c-1.02-4.5-3.15-8.59-5.94-12.48l-69.67-98.2c-5.87-8.27-14.83-13.83-24.85-15.4L177.39,11.66c-3.64-.58-7.37-1.7-10.94-1.37-8.64.78-15.25,3.74-17.95,13.15-.57,2-.78,4.14-.88,6.22-.34,7.14-.43,14.3-.85,21.43-.34,5.87-.94,11.73-1.55,17.59-.66,6.35-1.36,12.7-2.26,19.03-.82,5.79-1.94,11.55-2.91,17.32-.84,4.98-1.54,9.98-2.52,14.93-1.06,5.37-2.35,10.69-3.56,16.03-1.08,4.77-2.09,9.55-3.32,14.28-1.36,5.2-2.93,10.35-4.45,15.51-1.54,5.22-3.05,10.46-4.74,15.64-2.09,6.4-4.24,12.79-6.57,19.11-3.01,8.13-6.26,16.16-9.32,24.28-.2.54.2,1.85.62,2.02,7.15,2.75,14.34,5.36,21.53,8.01,1.15.42,2.29.86,3.44,1.27,1.8.65,2.33,1.82,1.6,3.53-4.69,10.85-9.37,21.7-14.1,32.53-.74,1.68-.14,2.61,1.38,3.23,9.35,3.84,14.19,5.55,23.57,9.3,1.91.76,2.15,1.45,1.23,3.33-5.69,11.68-7.75,15.83-13.37,27.54-.83,1.73-.61,1.98.82,3.18l30.97,11.89c2.04.31,2.29.4,1.16,2.48l-15.95,30.9c-.91,1.74-.38,3.1,1.44,3.86l110.22,56.03c7.15,3.97,14.68,6.79,23.07,6.37.07,0,.14,0,.21-.01,9.26-.52,17.88-4.86,24.02-11.81,58.49-66.09,98.54-187.79,107.22-231,1.12-6.15,1.74-14.54,1.74-21.6.03-2.24-.2-4.38-.67-6.43ZM244.31,200.51c-5.87,26.35-28.22,43.79-49.94,38.95-21.71-4.83-34.56-30.11-28.69-56.46,5.87-26.35,28.22-43.79,49.94-38.95,21.71,4.83,34.56,30.11,28.69,56.46ZM340.42,234.9c-5.87,26.35-28.22,43.79-49.94,38.95-21.71-4.83-34.56-30.11-28.69-56.46,5.87-26.35,28.22-43.79,49.94-38.95,21.71,4.83,34.56,30.11,28.69,56.46ZM397.59,172.08c-.35,1.5-1.9,2.37-3.36,1.89-1.7-.56-3.3-1.08-4.88-1.67-13.7-5.09-27.45-10.04-41.04-15.4-4.58-1.8-11.32-4.07-15.15-7.1-11.43-9.04-16.11-24.04-16.91-37.92-.74-12.69.32-25.5.67-38.25.12-4.37.46-8.73.72-13.1.14-2.39,2.97-2.71,5.11-1.77,7.02,3.08,9.71,9.13,10.37,16.07.52,5.49.33,11.11-.16,16.62-.85,9.64-.73,19.14,1.78,28.56,2.32,8.72,7.04,15.65,15.5,19.09,12.67,5.15,25.55,9.8,38.37,14.59,3.65,1.37,7.16,2.76,8.19,7.09.36,1.54.55,3.6.7,5.16.17,1.71.61,3.92.1,6.13Z"/>
  </g>
</svg>
